<?xml version="1.0" standalone="no"?>
<!DOCTYPE svg PUBLIC "-//W3C//DTD SVG 20010904//EN"
 "http://www.w3.org/TR/2001/REC-SVG-20010904/DTD/svg10.dtd">
<svg version="1.0" xmlns="http://www.w3.org/2000/svg"
 width="1632.000000pt" height="560.000000pt" viewBox="0 0 1632.000000 560.000000"
 preserveAspectRatio="xMidYMid meet">

<g transform="translate(0.000000,560.000000) scale(0.100000,-0.100000)"
fill="#000000" stroke="none">
<path d="M2515 5010 c-124 -49 -263 -245 -370 -519 -94 -243 -173 -616 -232
-1101 -26 -213 -26 -1029 0 -1240 60 -486 135 -848 224 -1085 105 -277 236
-470 359 -531 69 -34 165 -35 230 -4 130 63 277 276 374 538 12 34 28 62 34
62 6 -1 33 -47 60 -103 40 -85 61 -114 121 -174 146 -144 250 -164 373 -71 79
59 115 103 173 207 139 249 244 641 306 1141 26 213 26 1036 0 1255 -49 402
-119 727 -204 938 -117 295 -270 467 -414 467 -68 0 -140 -25 -187 -65 -50
-44 -146 -186 -187 -277 -17 -37 -34 -66 -39 -65 -5 2 -30 57 -55 122 -104
265 -217 431 -336 492 -68 35 -161 41 -230 13z m463 -609 c46 -24 111 -88 118
-117 3 -12 1 -30 -4 -41 -18 -33 -80 -256 -101 -358 -80 -404 -105 -687 -104
-1205 1 -337 4 -386 43 -691 19 -152 82 -449 127 -598 l46 -155 -55 -51 c-85
-79 -165 -95 -256 -49 -99 49 -183 170 -254 362 -97 264 -146 509 -173 862
-40 519 -4 1044 96 1430 94 363 196 546 344 617 58 28 111 26 173 -6z m833
-517 c40 -20 85 -82 135 -189 112 -236 163 -585 151 -1028 -4 -122 -11 -265
-17 -317 -39 -359 -167 -681 -285 -720 -87 -29 -168 26 -230 155 -110 229
-165 551 -165 975 0 596 132 1081 310 1137 37 11 59 9 101 -13z"/>
<path d="M1840 4712 c-165 -83 -199 -103 -329 -197 -197 -142 -341 -278 -486
-460 -291 -366 -455 -816 -455 -1252 0 -437 116 -816 361 -1184 77 -115 139
-189 273 -323 172 -173 271 -250 503 -390 113 -67 135 -79 235 -122 89 -38 90
-28 3 45 -101 87 -225 242 -333 421 -194 321 -318 689 -378 1120 -21 154 -30
576 -15 711 36 316 105 602 204 840 135 324 278 550 478 752 64 64 111 117
105 117 -6 0 -81 -35 -166 -78z"/>
<path d="M12942 4211 c-12 -14 -25 -36 -28 -50 -3 -14 -11 -39 -19 -56 -8 -16
-21 -66 -30 -110 -9 -44 -19 -88 -22 -97 -7 -26 -33 -22 -33 5 0 51 -75 78
-211 76 -80 -1 -87 -3 -49 -10 25 -4 74 -8 110 -8 40 -1 60 -5 55 -10 -11 -11
-229 -31 -290 -27 -39 2 -76 -3 -122 -18 -18 -6 -21 -4 -16 14 3 11 3 20 -1
20 -10 0 -37 -60 -31 -70 7 -12 48 -13 59 -3 4 4 23 6 42 4 19 -1 42 3 51 11
13 10 17 10 20 1 3 -9 26 -13 66 -14 128 -1 182 -21 99 -35 -15 -3 -40 -9 -57
-14 -16 -5 -66 -16 -110 -25 -44 -9 -93 -22 -110 -29 -16 -7 -48 -13 -70 -15
-22 -1 -50 -8 -62 -16 -12 -8 -31 -15 -42 -15 -28 0 -35 -17 -10 -25 11 -4 19
-12 16 -18 -38 -105 -118 -449 -147 -637 -5 -30 -19 -109 -30 -175 -12 -66
-25 -157 -29 -203 -5 -46 -13 -88 -19 -94 -5 -5 -74 -32 -153 -58 -240 -81
-266 -96 -271 -160 -3 -39 19 -52 45 -26 18 18 151 85 192 97 17 4 61 17 100
28 38 11 71 18 73 16 2 -2 -2 -48 -8 -102 -18 -141 -25 -432 -11 -446 6 -6 11
-23 11 -39 0 -38 30 -98 49 -98 14 0 16 18 16 119 0 66 3 117 7 115 16 -10 37
70 48 183 12 119 39 315 45 321 12 12 457 90 523 92 5 0 -5 -80 -23 -190 -61
-372 -82 -516 -100 -675 -9 -77 -20 -167 -26 -200 -6 -33 -9 -64 -7 -70 2 -5
-17 -12 -42 -15 l-45 -5 -3 -53 -3 -53 43 -19 c25 -11 65 -20 95 -20 48 0 53
2 73 35 16 26 25 68 36 162 8 71 30 236 49 368 19 132 46 332 60 444 26 209
39 276 61 300 9 10 44 13 135 13 135 -1 159 3 159 22 0 8 7 19 15 26 23 19
-34 62 -83 62 -61 0 -127 -8 -142 -17 -27 -17 -90 -23 -90 -9 0 14 58 367 90
549 40 227 74 380 125 560 20 72 40 144 44 160 19 70 49 131 70 140 31 14 35
41 14 78 -18 30 -23 32 -74 32 -44 0 -58 -4 -77 -24z m-10 -153 c-10 -22 -11
-21 -11 12 -1 26 2 31 11 22 8 -8 8 -17 0 -34z m-32 -94 c0 -34 -4 -53 -10
-49 -5 3 -10 28 -10 56 0 27 5 49 10 49 6 0 10 -25 10 -56z m-30 -138 c0 -25
-4 -48 -10 -51 -6 -4 -10 13 -10 44 0 28 5 51 10 51 6 0 10 -20 10 -44z m-163
18 c-3 -3 -12 -4 -19 -1 -8 3 -5 6 6 6 11 1 17 -2 13 -5z m103 -54 c0 -6 -4
-18 -10 -28 -10 -19 -27 -90 -40 -172 -5 -30 -16 -84 -24 -120 -16 -68 -19
-86 -61 -345 -28 -173 -40 -246 -55 -340 -6 -33 -12 -73 -13 -90 -2 -26 -7
-30 -35 -33 -20 -2 -32 -9 -32 -18 0 -9 -11 -14 -30 -14 -39 0 -38 14 3 31 31
14 38 15 65 18 6 0 12 6 12 11 0 12 -60 8 -81 -6 -8 -4 -41 -9 -74 -10 -59 -2
-199 -32 -283 -60 -23 -8 -52 -14 -62 -14 -24 0 -26 -16 31 312 22 125 62 307
89 406 27 98 53 204 59 235 6 31 18 68 27 82 11 17 14 35 10 60 -4 19 -4 35
-1 35 3 0 26 -9 50 -20 l45 -20 100 20 c56 11 122 22 148 24 32 2 64 14 97 34
54 34 65 38 65 22z m20 -140 c-17 -31 -29 -15 -20 27 5 20 7 40 4 45 -3 4 1
18 8 30 12 21 13 19 16 -29 2 -29 -2 -62 -8 -73z m-26 -73 c-3 -23 -13 -82
-24 -132 -27 -126 -50 -264 -50 -301 0 -16 -4 -34 -9 -40 -5 -5 -12 -45 -15
-89 -4 -43 -11 -82 -16 -85 -5 -3 -8 -12 -7 -20 1 -18 -12 -145 -19 -178 -2
-13 -9 -20 -14 -17 -11 7 -5 119 9 173 6 20 15 75 20 121 6 46 16 90 22 98 7
8 12 35 11 61 0 26 4 65 10 87 19 66 19 69 19 108 -1 20 6 56 14 80 9 23 17
56 19 73 8 71 18 114 26 109 4 -3 6 -24 4 -48z m-678 -224 c-10 -10 -19 5 -10
18 6 11 8 11 12 0 2 -7 1 -15 -2 -18z m-9 -35 c-3 -8 -6 -5 -6 6 -1 11 2 17 5
13 3 -3 4 -12 1 -19z m-26 -91 c-17 -17 -24 -1 -10 25 12 21 14 21 17 4 2 -10
-1 -23 -7 -29z m-15 -84 c-10 -73 -45 -279 -61 -358 -8 -38 -17 -101 -20 -139
-12 -148 -34 -97 -25 58 5 83 10 110 22 117 9 5 14 17 11 27 -4 16 53 317 64
335 11 18 15 3 9 -40z m369 -492 c8 -14 -2 -18 -131 -45 -65 -14 -144 -31
-174 -39 -30 -8 -58 -13 -62 -10 -19 11 -4 21 38 27 26 3 53 11 59 16 7 6 41
12 74 14 37 2 69 10 79 19 15 14 42 21 94 26 9 0 19 -3 23 -8z m195 -78 c0
-38 -10 -73 -21 -73 -5 0 -9 23 -9 50 0 38 4 50 15 50 10 0 15 -10 15 -27z
m-762 -65 c-3 -7 -18 -15 -34 -19 -16 -4 -37 -10 -48 -14 -13 -6 -17 -4 -14 5
4 13 59 38 86 39 8 1 12 -5 10 -11z m-118 -37 c0 -5 -12 -14 -27 -19 -16 -5
-36 -13 -45 -17 -11 -4 -18 -3 -18 4 0 6 9 11 20 11 11 0 20 4 20 9 0 8 16 16
43 20 4 0 7 -3 7 -8z m200 -43 c-1 -51 -1 -52 -15 -28 -19 34 -19 80 0 80 11
0 15 -12 15 -52z m657 -10 c-3 -7 -5 -2 -5 12 0 14 2 19 5 13 2 -7 2 -19 0
-25z m-1004 -15 c-7 -2 -19 -2 -25 0 -7 3 -2 5 12 5 14 0 19 -2 13 -5z m337
-57 c0 -3 -4 -8 -10 -11 -5 -3 -10 -1 -10 4 0 6 5 11 10 11 6 0 10 -2 10 -4z
m650 -6 c0 -5 -5 -10 -11 -10 -5 0 -7 5 -4 10 3 6 8 10 11 10 2 0 4 -4 4 -10z
m-4 -77 c-11 -11 -19 6 -11 24 8 17 8 17 12 0 3 -10 2 -21 -1 -24z m-675 -58
c-3 -113 -20 -141 -20 -33 -1 82 5 125 17 114 2 -3 4 -39 3 -81z m683 -18 c-7
-19 -20 -22 -29 -7 -9 15 16 43 27 32 5 -5 6 -16 2 -25z m-614 -106 c0 -12
-29 -35 -36 -28 -11 10 5 37 21 37 8 0 15 -4 15 -9z"/>
<path d="M10175 4043 c-225 -48 -694 -236 -875 -352 -30 -19 -77 -46 -105 -60
-69 -36 -124 -72 -164 -110 -18 -17 -37 -31 -41 -31 -4 0 -41 -35 -81 -78 -83
-86 -118 -150 -126 -227 -16 -154 94 -268 461 -475 25 -14 56 -35 68 -46 13
-11 61 -48 106 -83 82 -62 153 -141 199 -222 33 -58 32 -145 -3 -219 -14 -30
-29 -57 -33 -60 -4 -3 -17 -21 -29 -41 -24 -39 -143 -157 -189 -186 -16 -10
-34 -23 -41 -30 -7 -7 -20 -13 -27 -13 -7 0 -20 -7 -28 -15 -8 -8 -54 -30
-102 -50 -74 -31 -102 -37 -191 -42 -113 -7 -123 -2 -110 51 7 29 90 114 177
181 35 27 69 53 74 57 6 5 34 27 63 50 38 29 50 43 41 49 -17 10 14 38 71 64
26 12 40 24 40 37 0 21 8 23 -122 -19 -42 -13 -87 -32 -100 -42 -13 -10 -34
-22 -48 -26 -31 -9 -120 -74 -178 -129 -64 -61 -85 -107 -89 -201 -5 -101 19
-157 84 -193 39 -21 46 -22 115 -11 40 6 83 17 95 25 12 8 27 14 33 14 18 0
190 82 190 91 0 4 10 11 23 15 50 15 209 161 278 254 61 82 74 126 71 248 -2
126 -21 187 -86 284 -42 63 -167 184 -257 250 -56 41 -211 139 -293 186 -79
46 -183 132 -196 161 -18 46 7 104 81 185 52 56 236 206 254 206 4 0 59 31
123 68 170 100 285 153 537 250 270 104 580 152 602 94 6 -14 -5 -71 -22 -114
-5 -13 -2 -18 9 -18 9 0 16 5 16 10 0 6 7 10 15 10 8 0 29 13 47 29 l33 29
-13 48 c-16 58 -73 131 -118 150 -42 18 -149 17 -239 -3z m-1145 -568 c-7 -9
-15 -13 -17 -11 -7 7 7 26 19 26 6 0 6 -6 -2 -15z m137 -1402 c2 -6 -2 -13
-10 -16 -8 -3 -13 3 -14 15 -2 20 18 21 24 1z m-277 -133 c0 -5 -5 -10 -11
-10 -5 0 -7 5 -4 10 3 6 8 10 11 10 2 0 4 -4 4 -10z m90 -280 c0 -6 -11 -10
-25 -10 -23 0 -34 18 -19 33 9 8 44 -11 44 -23z"/>
<path d="M14865 4035 c-49 -7 -121 -18 -160 -24 -38 -6 -99 -14 -135 -17 -36
-4 -77 -13 -92 -20 -15 -8 -60 -19 -100 -24 -40 -6 -80 -13 -89 -15 -35 -11
-256 -45 -293 -45 -21 0 -44 6 -50 14 -9 12 -19 12 -66 0 -30 -8 -63 -24 -72
-35 -24 -28 -23 -80 3 -113 18 -23 27 -26 85 -26 64 0 64 0 64 -28 0 -16 -4
-53 -10 -83 -12 -69 -19 -133 -26 -234 -3 -44 -9 -89 -14 -100 -17 -40 -28
-91 -29 -130 0 -48 -3 -63 -19 -91 -17 -31 -35 -155 -24 -166 6 -6 7 -19 4
-31 -5 -20 -6 -20 -13 -1 -6 17 -8 17 -18 -8 -6 -15 -12 -54 -15 -85 -2 -32
-9 -74 -15 -93 -14 -48 -22 -170 -10 -170 5 0 9 -4 9 -10 0 -5 -6 -10 -13 -10
-16 0 -41 -137 -52 -275 -2 -22 -8 -76 -14 -120 -5 -44 -13 -150 -17 -235 -3
-85 -7 -175 -8 -199 -2 -28 -9 -48 -19 -56 -23 -16 -195 -52 -329 -69 -59 -7
-114 -18 -122 -25 -10 -8 -16 -29 -16 -52 0 -33 5 -42 33 -60 32 -20 49 -21
142 -4 35 6 192 51 250 71 58 20 82 18 113 -11 33 -30 42 -28 56 13 6 17 18
38 26 46 8 8 96 40 195 71 99 31 207 65 241 76 33 10 94 23 135 29 109 13 179
30 179 42 0 22 -302 2 -475 -32 -88 -17 -175 -35 -193 -41 -18 -6 -36 -8 -39
-5 -3 3 2 24 11 47 26 65 140 422 164 514 6 22 32 108 57 190 26 83 55 182 65
220 11 39 30 104 44 145 13 41 35 111 47 155 13 44 66 204 117 355 100 293
152 448 174 519 13 43 15 45 76 62 35 10 107 23 159 29 53 7 108 16 122 22 43
16 448 23 536 9 56 -9 80 -10 88 -2 6 6 21 11 34 11 16 0 23 6 23 18 0 38
-171 100 -184 66 -3 -8 -16 -14 -30 -14 -14 0 -28 -5 -31 -10 -4 -6 -10 -8
-14 -6 -4 3 -29 7 -54 10 -35 3 -47 1 -47 -9 0 -22 -20 -28 -33 -11 -12 17
-103 22 -270 15 -58 -2 -69 6 -31 23 20 8 106 14 264 16 136 3 227 8 215 12
-31 13 -390 9 -490 -5z m-50 -55 c-3 -5 -23 -10 -43 -9 -33 1 -34 2 -12 9 36
12 62 12 55 0z m660 -10 c3 -5 -1 -10 -9 -10 -8 0 -18 5 -21 10 -3 6 1 10 9
10 8 0 18 -4 21 -10z m-1075 -50 c0 -5 -9 -10 -21 -10 -11 0 -17 5 -14 10 3 6
13 10 21 10 8 0 14 -4 14 -10z m21 -111 c-2 -8 -56 -167 -118 -354 -63 -187
-123 -376 -135 -420 -11 -44 -24 -84 -28 -90 -4 -5 -10 -21 -12 -35 -3 -14
-18 -65 -32 -115 -63 -210 -100 -337 -127 -440 -17 -60 -52 -175 -80 -255 -28
-80 -57 -167 -65 -194 -37 -117 -43 33 -14 344 6 63 13 149 15 190 11 174 64
548 85 606 6 14 13 58 16 97 4 40 10 79 15 87 14 28 59 327 59 393 0 72 11
108 35 117 12 5 62 15 111 24 49 9 125 26 169 40 87 26 112 28 106 5z m-611
-1134 c0 -14 -4 -25 -10 -25 -5 0 -10 11 -10 25 0 14 5 25 10 25 6 0 10 -11
10 -25z m-65 -608 c0 -26 -20 -25 -23 2 -3 16 1 22 10 19 7 -3 13 -12 13 -21z"/>
<path d="M12214 3923 c-8 -28 -31 -37 -43 -15 -6 10 -11 12 -11 5 0 -9 -18
-13 -52 -14 -29 0 -62 -4 -73 -8 -11 -5 -25 -4 -32 1 -8 6 -18 3 -30 -11 -20
-24 -43 -27 -43 -6 0 22 -42 19 -89 -6 -23 -12 -48 -18 -60 -14 -11 3 -22 1
-26 -5 -4 -6 4 -10 19 -10 14 0 26 -4 26 -10 0 -15 -36 -12 -50 5 -14 16 -40
20 -40 6 0 -5 -11 -12 -25 -15 -14 -4 -25 -11 -25 -16 0 -14 124 -12 137 1 7
7 57 14 115 16 67 3 108 10 118 19 10 9 48 14 110 16 75 2 94 6 92 17 -2 8 3
18 10 22 10 7 9 12 -5 26 -17 17 -18 17 -23 -4z m-303 -58 c0 -5 -9 -11 -21
-13 -20 -3 -27 8 -13 22 10 9 34 3 34 -9z"/>
<path d="M6020 3912 c-68 -23 -137 -59 -215 -112 l-60 -40 -8 42 c-5 24 -16
60 -25 81 l-15 38 -61 -3 -61 -3 4 -175 3 -175 -30 -41 c-178 -243 -367 -664
-442 -982 -16 -71 -9 -92 57 -162 82 -87 108 -81 203 46 33 43 60 83 60 87 0
5 11 23 25 41 14 18 25 36 25 39 0 4 18 45 40 92 22 47 40 89 40 93 0 4 6 19
14 33 20 38 51 140 76 249 12 52 28 108 36 123 8 16 14 45 14 66 0 20 5 42 10
47 6 6 14 60 17 120 6 102 8 111 40 155 29 40 141 149 206 199 46 35 114 70
177 89 62 20 66 20 95 3 16 -10 40 -33 53 -52 27 -41 71 -179 79 -252 3 -29
10 -59 16 -65 6 -9 6 -13 -2 -13 -8 0 -11 -46 -11 -150 0 -111 -4 -160 -15
-187 -8 -19 -15 -38 -15 -40 0 -3 7 -3 15 1 10 4 15 -1 15 -15 0 -15 -5 -19
-15 -15 -8 3 -15 1 -15 -3 0 -5 6 -11 13 -14 9 -3 8 -12 -5 -35 -22 -37 -23
-52 -3 -52 8 0 15 6 15 14 0 7 7 19 15 26 12 10 15 9 15 -7 0 -12 -14 -30 -34
-44 -18 -12 -39 -32 -46 -43 -11 -18 -11 -19 1 -9 19 16 59 6 52 -13 -3 -8
-16 -14 -28 -14 -13 0 -27 -4 -30 -10 -3 -5 3 -10 14 -10 28 0 37 -20 13 -27
-13 -3 -18 -11 -15 -19 3 -9 13 -12 28 -8 13 3 26 1 30 -6 5 -7 -6 -10 -35 -8
-23 1 -44 -3 -48 -8 -4 -6 -20 -27 -36 -48 -22 -28 -26 -40 -18 -48 9 -9 12
-8 12 4 0 10 10 28 23 41 40 43 108 23 77 -23 -9 -13 -12 -13 -24 3 -14 18
-15 18 -25 -2 -15 -26 -14 -28 9 -34 30 -8 24 -27 -10 -33 -43 -9 -37 -24 10
-24 28 0 40 4 40 14 0 8 9 18 20 21 23 7 27 25 5 25 -21 0 -19 17 5 30 11 6
20 18 20 26 0 9 7 22 15 30 8 9 15 25 15 38 0 12 5 27 11 33 8 8 8 13 0 17
-13 8 -15 46 -3 46 4 0 13 20 20 45 10 38 10 49 -3 69 -15 22 -14 23 6 22 12
0 24 5 27 13 3 10 0 12 -13 7 -15 -5 -16 -2 -10 21 3 15 12 31 18 35 8 5 11
65 10 201 -1 199 -17 320 -50 397 -57 128 -74 149 -157 192 -58 30 -199 35
-276 10z m400 -472 c0 -11 -4 -20 -10 -20 -5 0 -10 9 -10 20 0 11 5 20 10 20
6 0 10 -9 10 -20z m5 -72 c3 -13 3 -36 1 -53 -3 -16 -5 -40 -5 -52 -1 -13 -5
-23 -10 -23 -4 0 -8 34 -9 75 0 72 12 100 23 53z m-915 -263 c-14 -16 -3 -62
20 -85 21 -21 18 -59 -10 -130 -12 -30 -32 -93 -45 -140 -38 -142 -84 -220
-120 -206 -29 11 -28 36 5 104 37 77 70 158 70 172 0 21 -20 8 -26 -16 -4 -15
-24 -60 -44 -100 -21 -40 -40 -79 -43 -86 -3 -10 -7 -10 -17 -1 -11 10 -9 28
9 95 12 46 28 92 35 103 7 11 23 47 36 80 13 33 49 112 79 175 51 105 56 112
59 82 2 -18 -2 -39 -8 -47z m907 53 c-3 -8 -6 -5 -6 6 -1 11 2 17 5 13 3 -3 4
-12 1 -19z m8 -48 c3 -5 -1 -10 -9 -10 -9 0 -16 5 -16 10 0 6 4 10 9 10 6 0
13 -4 16 -10z m-35 -275 c0 -8 -4 -15 -10 -15 -5 0 -10 7 -10 15 0 8 5 15 10
15 6 0 10 -7 10 -15z"/>
<path d="M5478 2990 c-12 -38 -10 -66 3 -53 6 6 9 26 7 44 -3 32 -3 33 -10 9z"/>
<path d="M5436 2864 c-4 -9 -4 -19 -1 -22 2 -3 7 3 11 12 4 9 4 19 1 22 -2 3
-7 -3 -11 -12z"/>
<path d="M7751 3897 c-24 -8 -41 -24 -56 -52 -22 -43 -64 -95 -76 -95 -4 0 -5
9 -2 20 3 11 12 20 19 20 16 0 19 26 4 35 -5 3 -22 -1 -37 -9 -45 -23 -246
-232 -274 -285 -15 -27 -34 -59 -42 -72 -10 -13 -14 -34 -12 -48 5 -22 4 -23
-4 -6 l-9 20 -8 -20 c-4 -11 -20 -36 -36 -55 -29 -36 -37 -57 -16 -44 8 5 9 0
5 -17 -4 -13 -7 -30 -7 -37 0 -7 -5 -10 -10 -7 -6 4 -8 16 -4 27 4 14 2 18 -5
14 -17 -11 -71 -131 -60 -134 5 -2 9 -8 9 -14 0 -6 -6 -8 -14 -5 -9 4 -18 -5
-26 -26 -7 -18 -18 -48 -26 -67 -75 -190 -106 -462 -51 -452 13 2 16 -3 11
-26 -4 -17 -1 -32 5 -36 6 -4 11 -16 11 -26 0 -31 78 -119 125 -142 24 -12 47
-28 50 -36 3 -7 -2 -43 -10 -78 -15 -67 -19 -299 -6 -359 7 -29 7 -29 13 -6
11 38 29 13 28 -37 -4 -144 50 -229 185 -293 94 -44 203 -17 311 78 73 64 190
203 252 301 51 79 172 326 172 350 0 6 14 41 31 79 17 37 40 100 50 138 41
150 52 192 60 240 4 27 18 93 30 145 20 82 23 122 22 290 0 226 -14 297 -88
457 -86 184 -201 261 -415 278 -39 2 -79 -1 -99 -8z m269 -82 c16 -8 38 -28
49 -44 30 -42 91 -151 91 -163 0 -5 6 -24 14 -41 51 -114 57 -153 53 -357 -2
-107 -10 -224 -16 -260 -21 -118 -29 -154 -46 -220 -9 -36 -22 -88 -28 -116
-7 -28 -17 -57 -23 -65 -19 -24 -25 -87 -8 -93 16 -6 20 -66 4 -66 -5 0 -10
-7 -10 -15 0 -8 -4 -15 -9 -15 -5 0 -11 -12 -13 -27 -3 -22 -6 -25 -12 -11 -5
11 0 27 13 45 13 19 18 37 14 55 -6 32 -23 28 -23 -5 0 -12 -9 -37 -20 -55
-11 -18 -20 -37 -20 -41 0 -18 -108 -237 -160 -326 -158 -267 -354 -436 -448
-386 -30 16 -67 83 -92 169 -21 68 -22 88 -17 245 8 241 17 266 98 267 29 0
111 25 149 44 14 8 43 17 65 21 48 8 119 48 131 74 5 11 36 41 69 67 86 70 51
68 -97 -5 -113 -56 -340 -132 -353 -119 -10 10 52 174 114 299 42 84 78 141
110 174 59 62 102 99 130 114 20 11 20 14 6 34 -8 12 -15 30 -15 40 0 9 -7 20
-15 23 -20 8 -102 -24 -149 -57 -90 -65 -267 -403 -310 -591 -4 -16 -12 -28
-19 -28 -20 0 -74 53 -81 80 -4 14 -15 41 -24 60 -12 26 -16 62 -15 145 1 96
6 125 37 227 33 107 91 244 130 308 9 14 35 60 60 102 63 109 140 210 241 316
80 84 128 120 260 195 38 21 145 23 185 2z m170 -230 c0 -5 -5 -3 -10 5 -5 8
-10 20 -10 25 0 6 5 3 10 -5 5 -8 10 -19 10 -25z m34 -42 c9 -18 13 -33 9 -33
-9 0 -33 48 -33 64 0 13 4 7 24 -31z m13 -75 c-3 -7 -5 -2 -5 12 0 14 2 19 5
13 2 -7 2 -19 0 -25z m40 -93 c4 -40 -12 -13 -20 35 -6 30 -5 32 5 15 7 -11
13 -33 15 -50z m-1107 -165 c0 -5 -4 -10 -10 -10 -5 0 -10 5 -10 10 0 6 5 10
10 10 6 0 10 -4 10 -10z m1112 -72 c-3 -40 -8 -82 -13 -93 -7 -17 -7 12 0 148
1 9 5 17 9 17 4 0 6 -33 4 -72z m-1182 -128 c0 -11 -7 -20 -15 -20 -17 0 -18
2 -9 24 9 23 24 20 24 -4z m1159 -93 c-15 -50 -13 -44 -23 -87 -19 -85 -28
-110 -36 -105 -14 9 -12 62 4 93 7 15 16 60 20 101 8 88 14 102 33 67 11 -21
11 -34 2 -69z m-1187 -15 c-7 -2 -9 -15 -5 -33 3 -18 1 -29 -6 -29 -6 0 -11
17 -11 40 0 33 3 38 17 33 10 -4 12 -8 5 -11z m-45 -94 c-1 -48 3 -59 23 -53
16 5 20 2 20 -15 0 -17 -4 -20 -20 -15 -14 5 -20 2 -20 -9 0 -30 -18 -16 -21
17 -5 43 0 87 11 87 4 0 8 -6 7 -12z m1168 -145 c-8 -62 -12 -73 -25 -73 -11
0 -13 42 -4 89 4 17 13 31 21 31 11 0 13 -10 8 -47z m-1163 -14 c-6 -42 -22
-46 -22 -5 0 26 4 36 13 33 6 -2 10 -15 9 -28z m1121 -137 c-3 -18 -10 -31
-17 -29 -11 4 -11 46 0 77 9 27 22 -11 17 -48z m-1043 -12 c0 -5 -2 -10 -4
-10 -3 0 -8 5 -11 10 -3 6 -1 10 4 10 6 0 11 -4 11 -10z m927 -252 c-3 -7 -5
-2 -5 12 0 14 2 19 5 13 2 -7 2 -19 0 -25z m-807 -79 c0 -5 -4 -9 -10 -9 -5 0
-10 7 -10 16 0 8 5 12 10 9 6 -3 10 -10 10 -16z m0 -250 c0 -5 -4 -9 -10 -9
-5 0 -10 7 -10 16 0 8 5 12 10 9 6 -3 10 -10 10 -16z"/>
<path d="M11390 3832 c0 -26 -11 -34 -27 -20 -7 6 -17 7 -21 3 -4 -4 -1 -10 6
-12 6 -3 12 -12 12 -22 0 -14 -14 -20 -67 -28 -38 -6 -111 -21 -163 -35 -52
-14 -120 -31 -150 -37 -30 -7 -82 -21 -115 -31 -86 -26 -135 -33 -135 -20 0 6
8 13 18 17 97 35 166 81 80 54 -55 -17 -269 -69 -338 -81 -36 -7 -74 -17 -85
-23 -11 -6 -51 -10 -88 -9 -57 2 -79 -3 -130 -27 -34 -15 -88 -40 -119 -55
-63 -29 -75 -49 -65 -112 9 -51 23 -64 74 -64 34 0 60 9 111 40 89 52 180 84
207 71 11 -5 47 -12 80 -15 81 -8 175 -55 220 -110 51 -63 87 -151 145 -356
15 -52 29 -316 18 -333 -4 -7 -8 -34 -8 -62 0 -35 3 -46 10 -35 14 23 19 8 11
-30 l-8 -35 -11 25 c-10 23 -11 21 -11 -20 0 -58 -15 -175 -36 -270 -9 -41
-14 -83 -11 -94 3 -11 1 -25 -4 -31 -5 -6 -25 -78 -45 -160 -21 -83 -40 -154
-44 -160 -4 -5 -13 -35 -21 -65 -7 -30 -26 -85 -42 -122 -15 -37 -28 -76 -28
-86 0 -24 63 -82 89 -82 22 0 27 12 81 190 21 69 58 181 82 250 24 69 57 172
72 230 15 58 31 116 36 130 11 33 87 279 107 350 8 30 19 62 24 70 15 25 19
37 75 240 9 30 27 89 41 130 14 41 37 109 50 150 14 41 40 113 58 160 18 47
41 108 50 135 32 90 114 287 130 311 10 15 25 24 41 24 14 0 32 7 40 15 9 8
26 15 40 15 30 0 32 16 2 23 -13 4 -32 -2 -51 -15 -31 -22 -31 -22 -58 25 -7
13 -23 17 -69 17 -52 0 -60 -3 -60 -18z m-40 -105 c0 -2 -12 -32 -26 -68 -33
-80 -106 -283 -146 -409 -45 -139 -116 -358 -133 -410 -8 -25 -15 -54 -15 -65
0 -11 -6 -29 -14 -40 -7 -11 -16 -37 -20 -59 -4 -21 -15 -53 -23 -72 -13 -27
-14 -38 -5 -59 16 -34 16 -108 1 -103 -7 2 -13 19 -14 36 -4 53 -27 58 -29 7
-2 -40 -20 -24 -21 18 -1 24 3 37 12 37 15 0 18 36 3 45 -6 4 -7 13 -2 23 15
31 6 352 -11 397 -8 22 -31 84 -51 139 -35 97 -66 149 -116 194 -52 46 -142
94 -210 110 -38 9 -70 19 -70 22 0 9 120 60 140 60 10 0 31 7 46 15 16 8 37
15 46 15 10 0 32 6 50 14 18 8 58 22 88 30 30 9 89 25 130 36 41 12 98 27 125
35 28 8 67 17 87 21 21 3 42 12 49 20 7 9 32 14 70 14 33 0 59 -1 59 -3z
m-630 -106 c0 -5 -11 -11 -25 -13 -28 -6 -35 8 -7 15 28 8 32 7 32 -2z m417
-613 c-3 -8 -6 -5 -6 6 -1 11 2 17 5 13 3 -3 4 -12 1 -19z m-21 -74 c-6 -49
-26 -69 -26 -27 0 37 9 63 21 63 5 0 7 -16 5 -36z m-32 -106 c-8 -49 -12 -58
-24 -58 -10 0 -5 62 7 83 11 19 22 3 17 -25z m-34 -138 c-6 -22 -15 -40 -19
-40 -5 0 -12 -20 -15 -45 -4 -25 -11 -45 -17 -45 -14 0 -11 41 6 74 8 15 15
39 15 52 0 13 5 35 12 49 18 40 32 6 18 -45z m67 18 c-3 -8 -6 -5 -6 6 -1 11
2 17 5 13 3 -3 4 -12 1 -19z m-167 -323 c0 -33 -4 -45 -14 -45 -10 0 -16 -14
-18 -42 -2 -25 -7 -41 -13 -38 -12 6 -7 61 6 75 5 5 9 28 9 52 0 32 4 43 15
43 11 0 15 -12 15 -45z m-67 4 c-4 -13 -9 -17 -15 -11 -11 11 -3 32 12 32 4 0
6 -9 3 -21z m-32 -62 c-10 -9 -11 -8 -5 6 3 10 9 15 12 12 3 -3 0 -11 -7 -18z
m-9 -97 c3 -16 1 -30 -4 -30 -4 0 -8 14 -8 30 0 17 2 30 4 30 2 0 6 -13 8 -30z"/>
<path d="M11100 3800 c0 -5 5 -10 10 -10 6 0 10 5 10 10 0 6 -4 10 -10 10 -5
0 -10 -4 -10 -10z"/>
<path d="M11190 3800 c0 -5 4 -10 9 -10 6 0 13 5 16 10 3 6 -1 10 -9 10 -9 0
-16 -4 -16 -10z"/>
<path d="M4518 3377 c-84 -77 -129 -277 -129 -570 0 -331 51 -540 146 -606
l34 -23 35 21 c51 32 102 144 128 278 16 84 21 151 21 298 2 284 -32 467 -106
573 -41 58 -86 68 -129 29z"/>
<path d="M6286 2831 c-4 -7 -5 -15 -2 -18 9 -9 19 4 14 18 -4 11 -6 11 -12 0z"/>
<path d="M5724 2760 c-114 -81 -280 -249 -327 -330 -149 -261 -188 -347 -218
-485 -29 -135 -35 -234 -16 -270 42 -82 143 -165 215 -179 84 -15 277 105 449
280 132 135 279 313 300 364 9 19 18 37 22 40 22 17 61 74 61 90 0 17 59 123
80 144 6 6 10 18 10 28 0 17 20 68 46 120 18 34 18 34 -9 33 -28 0 -109 -54
-104 -68 7 -22 27 -18 38 7 13 27 29 35 29 14 0 -28 -46 -107 -62 -108 -22 0
-24 -20 -2 -20 22 0 12 -23 -15 -35 -17 -8 -20 -16 -16 -34 3 -13 2 -27 -2
-30 -15 -10 -67 -93 -91 -144 -12 -26 -33 -60 -47 -75 -24 -27 -102 -126 -152
-194 -16 -20 -32 -36 -37 -34 -5 1 -16 21 -25 43 l-14 41 57 64 c32 34 75 88
96 119 43 62 185 347 178 355 -3 2 -40 -60 -83 -138 -116 -212 -161 -272 -338
-452 l-162 -163 -127 -62 c-127 -61 -152 -69 -163 -51 -3 5 -6 49 -6 97 0 134
63 350 139 479 85 144 184 288 237 345 19 20 19 29 0 29 -20 0 -19 29 1 37 9
3 21 18 28 33 15 35 52 78 104 119 38 31 55 61 34 61 -5 0 -53 -32 -108 -70z"/>
<path d="M6216 2604 c-8 -22 -4 -25 11 -9 7 8 9 16 4 19 -5 3 -12 -1 -15 -10z"/>
</g>
</svg>
